<?xml version="1.0" encoding="utf-8"?>
<svg xmlns="http://www.w3.org/2000/svg" width="2152" height="314" viewBox="0 0 2152 314" fill="none">
<path d="M470.61 107.797C479.307 91.7932 491.432 79.2761 506.982 70.3356C522.535 61.3951 540.193 56.9248 559.874 56.9248C584.03 56.9248 604.674 63.4513 621.896 76.4152C639.119 89.3791 650.535 107.082 656.335 129.522H601.866C597.826 120.85 592.025 114.324 584.644 109.764C577.176 105.204 568.745 102.969 559.254 102.969C543.97 102.969 531.67 108.333 522.179 119.151C512.693 129.969 507.948 144.454 507.948 162.513C507.948 180.573 512.693 195.057 522.179 205.875C531.67 216.693 543.97 222.058 559.254 222.058C568.745 222.058 577.176 219.822 584.644 215.263C592.111 210.703 597.826 204.176 601.866 195.504H656.335C650.535 217.945 639.027 235.558 621.896 248.433C604.674 261.307 584.03 267.744 559.874 267.744C540.193 267.744 522.535 263.274 506.982 254.334C491.432 245.392 479.307 232.966 470.61 217.051C461.912 201.137 457.607 182.987 457.607 162.513C457.607 142.039 461.912 123.801 470.61 107.797Z" fill="#FEFEFE"/>
<path d="M711.86 258.358C699.211 251.474 689.285 241.639 681.989 228.854C674.785 216.069 671.094 201.138 671.094 184.062C671.094 166.985 674.785 152.233 682.081 139.358C689.457 126.484 699.475 116.649 712.215 109.765C724.95 102.881 739.272 99.4834 755.084 99.4834C770.903 99.4834 785.219 102.881 797.96 109.765C810.7 116.649 820.712 126.484 828.094 139.358C835.476 152.233 839.075 167.164 839.075 184.062C839.075 200.959 835.384 215.89 827.916 228.764C820.449 241.639 810.344 251.474 797.518 258.358C784.692 265.242 770.375 268.64 754.471 268.64C738.567 268.64 724.422 265.242 711.774 258.358H711.86ZM778.806 214.46C785.483 207.396 788.824 197.294 788.824 184.062C788.824 170.829 785.575 160.816 779.161 153.664C772.656 146.6 764.753 143.024 755.262 143.024C745.771 143.024 737.605 146.511 731.191 153.484C724.778 160.458 721.614 170.65 721.614 183.972C721.614 197.294 724.778 207.307 731.013 214.37C737.249 221.433 745.158 225.01 754.649 225.01C764.134 225.01 772.221 221.433 778.806 214.37V214.46Z" fill="#FEFEFE"/>
<path d="M859.282 139.183C865.517 126.398 874.131 116.563 884.935 109.679C895.744 102.795 907.779 99.3974 921.133 99.3974C931.764 99.3974 941.427 101.632 950.213 106.192C958.999 110.752 965.939 116.832 970.942 124.431V48.0781H1020.49V266.229H970.942V242.625C966.289 250.494 959.698 256.752 951.09 261.49C942.482 266.229 932.463 268.553 921.133 268.553C907.779 268.553 895.744 265.066 884.935 258.093C874.131 251.119 865.609 241.195 859.282 228.321C853.047 215.446 849.883 200.604 849.883 183.618C849.883 166.63 853.047 151.879 859.282 139.093V139.183ZM960.667 154.203C953.812 146.961 945.467 143.295 935.627 143.295C925.786 143.295 917.442 146.872 910.587 154.024C903.739 161.177 900.312 171.101 900.312 183.618C900.312 196.134 903.739 206.148 910.587 213.568C917.442 220.9 925.786 224.655 935.627 224.655C945.467 224.655 953.812 220.989 960.667 213.748C967.521 206.505 970.942 196.582 970.942 183.975C970.942 171.369 967.521 161.445 960.667 154.203Z" fill="#FEFEFE"/>
<path d="M1202.18 196.131H1090.08C1090.87 206.323 1094.12 214.192 1099.74 219.555C1105.45 224.92 1112.48 227.692 1120.74 227.692C1133.12 227.692 1141.73 222.417 1146.57 211.777H1199.28C1196.56 222.596 1191.73 232.341 1184.61 240.923C1177.58 249.596 1168.71 256.391 1158.08 261.308C1147.45 266.226 1135.58 268.64 1122.41 268.64C1106.59 268.64 1092.45 265.242 1080.15 258.358C1067.76 251.474 1058.1 241.639 1051.16 228.854C1044.22 216.069 1040.7 201.138 1040.7 184.062C1040.7 166.985 1044.13 152.054 1050.98 139.269C1057.83 126.484 1067.41 116.649 1079.8 109.765C1092.19 102.881 1106.33 99.4834 1122.41 99.4834C1138.48 99.4834 1151.93 102.791 1164.14 109.497C1176.26 116.203 1185.84 125.679 1192.69 138.107C1199.54 150.445 1202.97 164.928 1202.97 181.469C1202.97 186.207 1202.71 191.125 1202.09 196.221L1202.18 196.131ZM1152.36 168.147C1152.36 159.475 1149.46 152.591 1143.67 147.494C1137.87 142.398 1130.67 139.805 1121.97 139.805C1113.27 139.805 1106.68 142.219 1100.97 147.136C1095.26 152.054 1091.74 159.027 1090.43 168.058H1152.46L1152.36 168.147Z" fill="#FEFEFE"/>
<path d="M1329.92 266.31L1287.67 188.169H1275.8V266.31H1226.25V59.335H1309.36C1325.44 59.335 1339.06 62.1959 1350.39 67.9176C1361.72 73.64 1370.16 81.418 1375.78 91.3424C1381.4 101.266 1384.22 112.353 1384.22 124.512C1384.22 138.28 1380.44 150.529 1372.8 161.347C1365.15 172.165 1353.91 179.854 1339.06 184.325L1385.97 266.31H1330.01H1329.92ZM1275.72 152.496H1306.46C1315.51 152.496 1322.37 150.261 1326.84 145.701C1331.42 141.141 1333.7 134.793 1333.7 126.568C1333.7 118.343 1331.42 112.531 1326.84 107.972C1322.28 103.412 1315.51 101.177 1306.46 101.177H1275.72V152.496Z" fill="#FEFEFE"/>
<path d="M1408.9 139.172C1415.14 126.388 1423.75 116.553 1434.56 109.668C1445.36 102.784 1457.49 100.37 1470.75 100.37H1570.12V266.218H1520.57V242.973C1515.74 250.662 1509.06 256.831 1500.45 261.569C1491.84 266.308 1481.83 268.632 1470.49 268.632C1457.31 268.632 1445.36 265.145 1434.56 258.172C1423.75 251.198 1415.23 241.274 1408.9 228.4C1402.67 215.525 1399.5 200.684 1399.5 183.697C1399.5 166.709 1402.67 151.958 1408.9 139.172ZM1510.29 154.192C1503.44 146.951 1495.09 143.285 1485.25 143.285C1475.41 143.285 1467.06 146.861 1460.21 154.014C1453.36 161.166 1449.93 171.09 1449.93 183.607C1449.93 196.124 1453.36 206.138 1460.21 213.558C1467.06 220.89 1475.41 224.645 1485.25 224.645C1495.09 224.645 1503.44 220.979 1510.29 213.737C1517.14 206.495 1520.57 196.571 1520.57 183.965C1520.57 171.358 1517.14 161.435 1510.29 154.192Z" fill="#FEFEFE"/>
<path d="M1669.83 106.46C1678.53 101.722 1688.46 99.3974 1699.7 99.3974C1713.06 99.3974 1725.09 102.795 1735.9 109.679C1746.7 116.563 1755.23 126.398 1761.55 139.183C1767.79 151.968 1770.95 166.809 1770.95 183.707C1770.95 200.604 1767.79 215.536 1761.55 228.41C1755.32 241.284 1746.7 251.209 1735.9 258.183C1725.09 265.156 1713.06 268.643 1699.7 268.643C1688.28 268.643 1678.35 266.318 1669.83 261.759C1661.31 257.11 1654.63 251.03 1649.8 243.341V266.318H1600.25V48.0781H1649.8V125.056C1654.46 117.368 1661.14 111.199 1669.83 106.46ZM1710.25 154.113C1703.39 146.961 1694.96 143.385 1684.86 143.385C1674.76 143.385 1666.67 147.05 1659.82 154.293C1652.97 161.534 1649.54 171.459 1649.54 184.065C1649.54 196.671 1652.97 206.595 1659.82 213.837C1666.67 221.079 1675.02 224.744 1684.86 224.744C1694.69 224.744 1703.13 221.079 1710.07 213.658C1717.01 206.327 1720.52 196.313 1720.52 183.707C1720.52 171.101 1717.1 161.266 1710.25 154.113Z" fill="#FEFEFE"/>
<path d="M1860.75 106.46C1869.44 101.722 1879.38 99.3974 1890.62 99.3974C1903.97 99.3974 1916.01 102.795 1926.82 109.679C1937.62 116.563 1946.14 126.398 1952.47 139.183C1958.71 151.968 1961.87 166.809 1961.87 183.707C1961.87 200.604 1958.71 215.536 1952.47 228.41C1946.23 241.284 1937.62 251.209 1926.82 258.183C1916.01 265.156 1903.97 268.643 1890.62 268.643C1879.2 268.643 1869.27 266.318 1860.75 261.759C1852.23 257.11 1845.55 251.03 1840.72 243.341V266.318H1791.17V48.0781H1840.72V125.056C1845.37 117.368 1852.05 111.199 1860.75 106.46ZM1901.16 154.113C1894.31 146.961 1885.88 143.385 1875.77 143.385C1865.67 143.385 1857.59 147.05 1850.73 154.293C1843.88 161.534 1840.46 171.459 1840.46 184.065C1840.46 196.671 1843.88 206.595 1850.73 213.837C1857.59 221.079 1865.93 224.744 1875.77 224.744C1885.61 224.744 1894.05 221.079 1900.99 213.658C1907.93 206.327 1911.44 196.313 1911.44 183.707C1911.44 171.101 1908.02 161.266 1901.16 154.113Z" fill="#FEFEFE"/>
<path d="M1985.77 76.8618C1980.23 71.6758 1977.51 65.239 1977.51 57.55C1977.51 49.861 1980.23 43.1553 1985.77 37.97C1991.3 32.7841 1998.33 30.1914 2007.02 30.1914C2015.72 30.1914 2022.49 32.7841 2028.02 37.97C2033.56 43.1553 2036.28 49.6818 2036.28 57.55C2036.28 65.4176 2033.56 71.6758 2028.02 76.8618C2022.49 82.0471 2015.55 84.6398 2007.02 84.6398C1998.5 84.6398 1991.21 82.0471 1985.77 76.8618ZM2031.71 101.806V266.313H1982.16V101.716H2031.71V101.806Z" fill="#FEFEFE"/>
<path d="M2151.9 223.485V266.221H2126.68C2108.76 266.221 2094.71 261.751 2084.69 252.81C2074.67 243.87 2069.67 229.296 2069.67 209.001V143.556H2049.99V101.714H2069.67V61.6602H2119.22V101.714H2151.64V143.556H2119.22V209.627C2119.22 214.544 2120.36 218.121 2122.73 220.266C2125.02 222.412 2128.88 223.485 2134.33 223.485H2151.99H2151.9Z" fill="#FEFEFE"/>
<path d="M156.512 313.61C242.944 313.61 313.012 243.543 313.012 157.11C313.012 70.6778 242.944 0.610352 156.512 0.610352C70.0792 0.610352 0.0117188 70.6778 0.0117188 157.11C0.0117188 243.543 70.0792 313.61 156.512 313.61Z" fill="#FEFEFE"/>
<path d="M262.787 131.187C262.787 131.187 240.979 103.314 213.569 101.72C195.882 100.676 191.597 103.039 190.829 104.799C189.731 95.6726 181.931 53.3929 128.045 44.4326C134.924 93.8816 163.333 80.9969 180.063 115.08C180.063 115.08 151.831 76.7045 105.415 90.8336C105.415 90.8336 122.333 126.35 172.373 133.607C172.373 133.607 176.383 147.352 177.591 149.771C177.591 149.771 100.526 109.581 77.1257 186.716C59.7109 182.772 53.8696 201.676 73.8856 214.59C73.8856 214.59 77.2913 201.066 85.5846 197.052C85.5846 197.052 67.7876 216.9 88.7155 240.671H163.83C165.645 237.665 173.678 221.847 153.811 209.873C167.835 209.673 179.25 236.125 191.531 240.853H209.394C209.998 239.385 211.261 234.987 208.294 231.029C203.72 225.782 193.705 226.493 193.794 216.789C197.252 171.651 264.936 185.512 262.785 131.187H262.787Z" fill="#171717"/>
</svg>